<svg xmlns="http://www.w3.org/2000/svg" viewBox="0 0 841.9 595.3">
  <symbol id="email" viewBox="0 0 512 512">
    <g transform="translate(0.000000,512.000000) scale(0.100000,-0.100000)">
      <path d="M391 4414 c-124 -33 -239 -130 -297 -250 -19 -39 -34 -79 -34 -88 0
-11 -9 -16 -30 -16 -29 0 -30 -1 -30 -50 0 -49 1 -50 30 -50 22 0 30 -5 30
-17 0 -35 60 -144 107 -194 65 -70 2203 -1497 2284 -1525 69 -23 149 -23 218
0 81 28 2219 1455 2284 1525 47 50 107 159 107 194 0 12 8 17 30 17 29 0 30 1
30 50 0 48 -1 50 -28 50 -25 0 -30 6 -45 53 -45 141 -175 263 -322 302 -52 13
-301 15 -2170 14 -1815 0 -2118 -2 -2164 -15z"/>
      <path d="M0 2195 l0 -1135 30 0 c21 0 30 -5 30 -16 0 -9 15 -49 34 -88 40 -81
115 -162 191 -206 112 -64 -39 -60 2275 -60 1863 0 2113 2 2165 15 147 39 277
161 322 302 15 47 20 53 45 53 l28 0 0 1135 0 1135 -1064 -709 c-585 -390
-1086 -721 -1112 -734 -105 -53 -179 -69 -341 -75 -94 -3 -177 0 -219 7 -159
28 -161 29 -1306 793 l-1078 718 0 -1135z"/>
    </g>
  </symbol>

  <symbol id="name" viewBox="0 0 512 512">
    <g transform="translate(0.000000,512.000000) scale(0.100000,-0.100000)">
      <path d="M2420 5090 c0 -26 -4 -30 -27 -30 -54 -1 -202 -39 -289 -75 -243
-101 -461 -289 -602 -522 -93 -153 -150 -348 -159 -538 -25 -531 381 -1053
922 -1188 155 -39 269 -45 412 -22 264 43 470 150 669 349 206 206 317 426
354 704 44 318 -89 678 -347 939 -181 183 -449 324 -669 349 -51 6 -54 8 -54
35 l0 29 -105 0 -105 0 0 -30z"/>
      <path d="M1460 2594 c-126 -19 -210 -44 -312 -95 -136 -67 -245 -163 -349
-305 -58 -79 -156 -273 -193 -385 -84 -249 -136 -579 -136 -860 0 -210 23
-317 103 -474 53 -102 188 -243 293 -303 81 -47 223 -97 302 -108 49 -6 52 -8
52 -35 l0 -29 1335 0 1335 0 0 30 c0 26 4 30 28 30 35 0 183 41 244 68 269
118 449 378 476 686 11 117 -3 374 -28 541 -113 762 -443 1180 -976 1240 -79
9 -101 -1 -320 -141 -179 -115 -304 -172 -471 -216 -78 -20 -111 -23 -288 -23
-175 1 -211 3 -285 23 -178 47 -296 101 -476 218 -206 134 -245 151 -334 138z"/>
    </g>
  </symbol>

  <symbol id="phone" viewBox="0 0 512 512">
    <g transform="translate(0.000000,512.000000) scale(0.100000,-0.100000)" >
    <path d="M1174 4880 c-109 -54 -296 -223 -480 -436 -178 -205 -378 -482 -450
-626 -42 -82 -41 -90 2 -288 71 -317 226 -686 434 -1030 393 -650 1002 -1282
1651 -1712 347 -231 714 -407 1046 -503 95 -28 317 -75 352 -75 34 0 151 63
288 156 383 258 772 622 864 809 28 58 29 62 15 102 -21 60 -59 115 -108 158
-24 20 -149 108 -278 194 -461 307 -803 483 -914 468 -66 -9 -141 -72 -291
-245 l-139 -162 -53 0 c-64 0 -205 53 -362 136 -407 215 -731 543 -936 949
-79 154 -125 282 -125 343 l0 47 141 120 c204 174 268 251 269 325 1 116 -206
506 -504 950 -150 224 -195 276 -268 312 -82 41 -89 41 -154 8z"/>
    </g>
  </symbol>
</svg>